<svg width="191" height="191" viewBox="0 0 191 191" fill="none" xmlns="http://www.w3.org/2000/svg">
<g clip-path="url(#clip0_153_60)">
<rect width="191" height="191" rx="15" fill="#FF8004" fill-opacity="0.06"/>
<mask id="mask0_153_60" style="mask-type:alpha" maskUnits="userSpaceOnUse" x="35" y="36" width="121" height="120">
<path d="M95.5 37.875C84.004 37.875 72.7661 41.284 63.2075 47.6708C53.6489 54.0577 46.1989 63.1356 41.7995 73.7565C37.4002 84.3775 36.2491 96.0645 38.4919 107.34C40.7346 118.615 46.2705 128.972 54.3994 137.101C62.5284 145.23 72.8853 150.765 84.1604 153.008C95.4355 155.251 107.123 154.1 117.743 149.701C128.364 145.301 137.442 137.851 143.829 128.293C150.216 118.734 153.625 107.496 153.625 96C153.608 80.5895 147.479 65.815 136.582 54.9181C125.685 44.0212 110.911 37.8919 95.5 37.875ZM95.5 150.375C84.7457 150.375 74.2328 147.186 65.2909 141.211C56.349 135.236 49.3796 126.744 45.2641 116.808C41.1486 106.873 40.0718 95.9397 42.1698 85.392C44.2679 74.8442 49.4466 65.1555 57.0511 57.5511C64.6556 49.9466 74.3443 44.7679 84.892 42.6698C95.4397 40.5717 106.373 41.6485 116.308 45.7641C126.244 49.8796 134.736 56.8489 140.711 65.7909C146.686 74.7328 149.875 85.2456 149.875 96C149.858 110.416 144.124 124.237 133.93 134.43C123.737 144.624 109.916 150.358 95.5 150.375Z" fill="black"/>
<path d="M90.4244 61.7006C90.7759 62.0523 91.2528 62.2499 91.75 62.25H99.25C99.7472 62.2499 100.224 62.0523 100.576 61.7006L104.326 57.9506C104.677 57.5991 104.875 57.1222 104.875 56.625V49.125C104.875 48.6278 104.677 48.1509 104.326 47.7994L100.576 44.0494C100.224 43.6977 99.7472 43.5001 99.25 43.5H91.75C91.2528 43.5001 90.7759 43.6977 90.4244 44.0494L86.6744 47.7994C86.3227 48.1509 86.1251 48.6278 86.125 49.125V56.625C86.1251 57.1222 86.3227 57.5991 86.6744 57.9506L90.4244 61.7006ZM89.875 49.9012L92.5262 47.25H98.4737L101.125 49.9012V55.8488L98.4737 58.5H92.5262L89.875 55.8488V49.9012ZM65.5 96C65.5 101.933 67.2595 107.734 70.5559 112.667C73.8524 117.601 78.5377 121.446 84.0195 123.716C89.5013 125.987 95.5333 126.581 101.353 125.424C107.172 124.266 112.518 121.409 116.713 117.213C120.909 113.018 123.766 107.672 124.924 101.853C126.081 96.0333 125.487 90.0013 123.216 84.5195C120.946 79.0377 117.101 74.3524 112.167 71.0559C107.234 67.7595 101.433 66 95.5 66C87.5464 66.0094 79.9213 69.1732 74.2972 74.7972C68.6732 80.4213 65.5094 88.0464 65.5 96ZM121.75 96C121.75 101.192 120.21 106.267 117.326 110.584C114.442 114.901 110.342 118.265 105.545 120.252C100.749 122.239 95.4709 122.758 90.3789 121.746C85.2869 120.733 80.6096 118.233 76.9384 114.562C73.2673 110.89 70.7673 106.213 69.7544 101.121C68.7415 96.0291 69.2614 90.7511 71.2482 85.9546C73.235 81.158 76.5995 77.0583 80.9163 74.1739C85.2331 71.2895 90.3082 69.75 95.5 69.75C102.46 69.7574 109.132 72.5255 114.053 77.4467C118.975 82.3679 121.743 89.0404 121.75 96ZM100.576 130.299C100.224 129.948 99.7472 129.75 99.25 129.75H91.75C91.2528 129.75 90.7759 129.948 90.4244 130.299L86.6744 134.049C86.3227 134.401 86.1251 134.878 86.125 135.375V142.875C86.1251 143.372 86.3227 143.849 86.6744 144.201L90.4244 147.951C90.7759 148.302 91.2528 148.5 91.75 148.5H99.25C99.7472 148.5 100.224 148.302 100.576 147.951L104.326 144.201C104.677 143.849 104.875 143.372 104.875 142.875V135.375C104.875 134.878 104.677 134.401 104.326 134.049L100.576 130.299ZM101.125 142.099L98.4737 144.75H92.5262L89.875 142.099V136.151L92.5262 133.5H98.4737L101.125 136.151V142.099ZM57.4506 104.826L61.2006 101.076C61.5523 100.724 61.7499 100.247 61.75 99.75V92.25C61.7499 91.7528 61.5523 91.2759 61.2006 90.9244L57.4506 87.1744C57.0991 86.8227 56.6222 86.6251 56.125 86.625H48.625C48.1278 86.6251 47.6509 86.8227 47.2994 87.1744L43.5494 90.9244C43.1977 91.2759 43.0001 91.7528 43 92.25V99.75C43.0001 100.247 43.1977 100.724 43.5494 101.076L47.2994 104.826C47.6509 105.177 48.1278 105.375 48.625 105.375H56.125C56.6222 105.375 57.0991 105.177 57.4506 104.826ZM49.4012 101.625L46.75 98.9737V93.0262L49.4012 90.375H55.3488L58 93.0262V98.9737L55.3488 101.625H49.4012Z" fill="black"/>
<path d="M133.549 87.1744L129.799 90.9244C129.448 91.2759 129.25 91.7528 129.25 92.25V99.75C129.25 100.247 129.448 100.724 129.799 101.076L133.549 104.826C133.901 105.177 134.378 105.375 134.875 105.375H142.375C142.872 105.375 143.349 105.177 143.701 104.826L147.451 101.076C147.802 100.724 148 100.247 148 99.75V92.25C148 91.7528 147.802 91.2759 147.451 90.9244L143.701 87.1744C143.349 86.8227 142.872 86.6251 142.375 86.625H134.875C134.378 86.6251 133.901 86.8227 133.549 87.1744ZM141.599 90.375L144.25 93.0262V98.9737L141.599 101.625H135.651L133 98.9737V93.0262L135.651 90.375H141.599ZM129.25 56.625H121.75C121.253 56.6251 120.776 56.8227 120.424 57.1744L116.674 60.9244C116.323 61.2759 116.125 61.7528 116.125 62.25V69.75C116.125 70.2472 116.323 70.7241 116.674 71.0756L120.424 74.8256C120.776 75.1773 121.253 75.3749 121.75 75.375H129.25C129.747 75.3749 130.224 75.1773 130.576 74.8256L134.326 71.0756C134.677 70.7241 134.875 70.2472 134.875 69.75V62.25C134.875 61.7528 134.677 61.2759 134.326 60.9244L130.576 57.1744C130.224 56.8227 129.747 56.6251 129.25 56.625ZM131.125 68.9738L128.474 71.625H122.526L119.875 68.9738V63.0262L122.526 60.375H128.474L131.125 63.0262V68.9738ZM60.4244 74.8256C60.7759 75.1773 61.2528 75.3749 61.75 75.375H69.25C69.7472 75.3749 70.2241 75.1773 70.5756 74.8256L74.3256 71.0756C74.6773 70.7241 74.8749 70.2472 74.875 69.75V62.25C74.8749 61.7528 74.6773 61.2759 74.3256 60.9244L70.5756 57.1744C70.2241 56.8227 69.7472 56.6251 69.25 56.625H61.75C61.2528 56.6251 60.7759 56.8227 60.4244 57.1744L56.6744 60.9244C56.3227 61.2759 56.1251 61.7528 56.125 62.25V69.75C56.1251 70.2472 56.3227 70.7241 56.6744 71.0756L60.4244 74.8256ZM59.875 63.0262L62.5262 60.375H68.4738L71.125 63.0262V68.9738L68.4738 71.625H62.5262L59.875 68.9738V63.0262ZM130.576 117.174C130.224 116.823 129.747 116.625 129.25 116.625H121.75C121.253 116.625 120.776 116.823 120.424 117.174L116.674 120.924C116.323 121.276 116.125 121.753 116.125 122.25V129.75C116.125 130.247 116.323 130.724 116.674 131.076L120.424 134.826C120.776 135.177 121.253 135.375 121.75 135.375H129.25C129.747 135.375 130.224 135.177 130.576 134.826L134.326 131.076C134.677 130.724 134.875 130.247 134.875 129.75V122.25C134.875 121.753 134.677 121.276 134.326 120.924L130.576 117.174ZM131.125 128.974L128.474 131.625H122.526L119.875 128.974V123.026L122.526 120.375H128.474L131.125 123.026V128.974ZM70.5756 117.174C70.2241 116.823 69.7472 116.625 69.25 116.625H61.75C61.2528 116.625 60.7759 116.823 60.4244 117.174L56.6744 120.924C56.3227 121.276 56.1251 121.753 56.125 122.25V129.75C56.1251 130.247 56.3227 130.724 56.6744 131.076L60.4244 134.826C60.7759 135.177 61.2528 135.375 61.75 135.375H69.25C69.7472 135.375 70.2241 135.177 70.5756 134.826L74.3256 131.076C74.6773 130.724 74.8749 130.247 74.875 129.75V122.25C74.8749 121.753 74.6773 121.276 74.3256 120.924L70.5756 117.174ZM71.125 128.974L68.4738 131.625H62.5262L59.875 128.974V123.026L62.5262 120.375H68.4738L71.125 123.026V128.974Z" fill="black"/>
</mask>
<g mask="url(#mask0_153_60)">
<rect width="191" height="191" fill="#FF8004"/>
</g>
</g>
<defs>
<clipPath id="clip0_153_60">
<rect width="191" height="191" fill="white"/>
</clipPath>
</defs>
</svg>
