<svg width="232" height="116" viewBox="0 0 232 116" fill="none" xmlns="http://www.w3.org/2000/svg">
<g clip-path="url(#clip0_114_25)">
<path d="M115.806 38.2147C158.03 38.2147 192.594 72.8544 192.594 116C192.594 159.145 158.03 193.786 115.806 193.786C73.5811 193.786 39.0175 159.145 39.0175 116C39.0175 72.8544 73.5811 38.2147 115.806 38.2147Z" stroke="#BAB9B9" stroke-width="37.8956"/>
<path d="M115.806 63.82C144.308 63.8202 167.435 87.17 167.435 116C167.435 144.83 144.308 168.18 115.806 168.18C87.3033 168.18 64.1759 144.83 64.1759 116C64.1761 87.1699 87.3034 63.82 115.806 63.82Z" stroke="#BAB9B9" stroke-width="2.4083"/>
<rect x="101.149" width="28.8997" height="32.9135" fill="#BAB9B9"/>
<rect x="161.085" y="8.31613" width="28.8997" height="32.9135" transform="rotate(30 161.085 8.31613)" fill="#BAB9B9"/>
<rect x="208.833" y="45.4861" width="28.8997" height="32.9135" transform="rotate(60 208.833 45.4861)" fill="#BAB9B9"/>
<rect x="231.599" y="101.55" width="28.8997" height="32.9135" transform="rotate(90 231.599 101.55)" fill="#BAB9B9"/>
<rect x="32.5121" y="101.55" width="28.8997" height="32.9135" transform="rotate(90 32.5121 101.55)" fill="#BAB9B9"/>
<rect x="50.8685" y="61.9428" width="28.8997" height="32.9135" transform="rotate(120 50.8685 61.9428)" fill="#BAB9B9"/>
<rect x="86.5693" y="36.8201" width="28.8997" height="32.9135" transform="rotate(150 86.5693 36.8201)" fill="#BAB9B9"/>
</g>
<defs>
<clipPath id="clip0_114_25">
<rect width="232" height="115.599" fill="white"/>
</clipPath>
</defs>
</svg>
