<svg width="244" height="157" viewBox="0 0 244 157" fill="none" xmlns="http://www.w3.org/2000/svg">
<g clip-path="url(#clip0_20_509)">
<path d="M115.806 38.2147C158.03 38.2147 192.594 72.8544 192.594 116C192.594 159.145 158.03 193.786 115.806 193.786C73.5811 193.786 39.0175 159.145 39.0175 116C39.0175 72.8544 73.5811 38.2147 115.806 38.2147Z" stroke="#BAB9B9" stroke-width="37.8956"/>
<path d="M115.806 63.82C144.308 63.8202 167.435 87.17 167.435 116C167.435 144.83 144.308 168.18 115.806 168.18C87.3033 168.18 64.1759 144.83 64.1759 116C64.1761 87.1699 87.3034 63.82 115.806 63.82Z" stroke="#BAB9B9" stroke-width="2.4083"/>
<rect x="101.149" width="28.8997" height="32.9135" fill="#BAB9B9"/>
<rect x="161.085" y="8.31613" width="28.8997" height="32.9135" transform="rotate(30 161.085 8.31613)" fill="#BAB9B9"/>
<rect x="208.833" y="45.4861" width="28.8997" height="32.9135" transform="rotate(60 208.833 45.4861)" fill="#BAB9B9"/>
<rect x="231.599" y="101.55" width="28.8997" height="32.9135" transform="rotate(90 231.599 101.55)" fill="#BAB9B9"/>
<rect x="32.5121" y="101.55" width="28.8997" height="32.9135" transform="rotate(90 32.5121 101.55)" fill="#BAB9B9"/>
<rect x="50.8685" y="61.9428" width="28.8997" height="32.9135" transform="rotate(120 50.8685 61.9428)" fill="#BAB9B9"/>
<rect x="86.5693" y="36.8201" width="28.8997" height="32.9135" transform="rotate(150 86.5693 36.8201)" fill="#BAB9B9"/>
</g>
<path d="M24 121H0V129.129H24V121Z" fill="#311F85"/>
<path d="M0 157V134.935H24V142.677H10.0645V157H0Z" fill="#311F85"/>
<path d="M35.2258 157H26.3226V121.387H35.2258V157Z" fill="#311F85"/>
<path d="M53.0323 121.387H38.3226V129.129H49.5484C52.3355 129.129 53.0323 131.194 53.0323 132.226C53.0323 134.703 50.7097 135.065 49.5484 134.935H38.3226V142.677H50.3226C52.8 142.677 53.4194 144.484 53.4194 145.387C53.729 148.174 51.4839 148.871 50.3226 148.871H38.3226V157H54.5806C62.3226 155.839 64.6452 152.355 64.6452 145.774C64.6452 140.51 61.0323 138.161 59.2258 137.645C60.7742 137.774 63.7936 136.406 63.4839 129.903C63.1742 123.4 56.3871 121.516 53.0323 121.387Z" fill="#311F85"/>
<path d="M184.563 121H162.229V128.565H184.563V121Z" fill="#311F85"/>
<path d="M162.229 154.501V133.968H184.563V141.173H171.595V154.501H162.229Z" fill="#311F85"/>
<path d="M233.193 121.36H219.505V128.565H229.951C232.545 128.565 233.193 130.486 233.193 131.447C233.193 133.752 231.032 134.088 229.951 133.968H219.505V141.173H230.672C232.977 141.173 233.553 142.854 233.553 143.694C233.842 146.288 231.752 146.936 230.672 146.936H219.505V154.501H234.634C241.839 153.42 244 150.178 244 144.054C244 139.155 240.638 136.97 238.957 136.49C240.398 136.61 243.208 135.337 242.919 129.285C242.631 123.233 236.315 121.48 233.193 121.36Z" fill="#311F85"/>
<path d="M200.773 134.328H193.569L188.165 154.141H215.903L205.456 121H197.531L205.456 146.216H197.531L200.773 134.328Z" fill="#311F85"/>
<path d="M116.931 92.3621C137.61 103.293 100.929 138.257 80.0038 154.372V157H147V138.082H119.041C143.94 120.424 147.352 104.449 145.945 98.6682C144.538 90.6104 135.5 74.81 110.601 76.0712C85.7011 77.3325 79.828 95.8655 80.0038 104.974L104.798 103.923C102.266 91.311 111.831 90.9607 116.931 92.3621Z" fill="#FF8004"/>
<defs>
<clipPath id="clip0_20_509">
<rect width="232" height="115.599" fill="white"/>
</clipPath>
</defs>
</svg>
