<svg width="244" height="81" viewBox="0 0 244 81" fill="none" xmlns="http://www.w3.org/2000/svg">
<path d="M24 45H0V53.129H24V45Z" fill="#311F85"/>
<path d="M0 81V58.9355H24V66.6774H10.0645V81H0Z" fill="#311F85"/>
<path d="M35.2258 81H26.3226V45.3871H35.2258V81Z" fill="#311F85"/>
<path d="M53.0323 45.3871H38.3226V53.129H49.5484C52.3355 53.129 53.0323 55.1935 53.0323 56.2258C53.0323 58.7032 50.7097 59.0645 49.5484 58.9355H38.3226V66.6774H50.3226C52.8 66.6774 53.4194 68.4839 53.4194 69.3871C53.729 72.1742 51.4839 72.871 50.3226 72.871H38.3226V81H54.5806C62.3226 79.8387 64.6452 76.3548 64.6452 69.7742C64.6452 64.5097 61.0323 62.1613 59.2258 61.6452C60.7742 61.7742 63.7936 60.4065 63.4839 53.9032C63.1742 47.4 56.3871 45.5161 53.0323 45.3871Z" fill="#311F85"/>
<path d="M184.563 45H162.229V52.5647H184.563V45Z" fill="#311F85"/>
<path d="M162.229 78.5009V57.9681H184.563V65.1726H171.595V78.5009H162.229Z" fill="#311F85"/>
<path d="M233.193 45.3602H219.505V52.5647H229.951C232.545 52.5647 233.193 54.4859 233.193 55.4465C233.193 57.752 231.032 58.0882 229.951 57.9681H219.505V65.1726H230.672C232.977 65.1726 233.553 66.8536 233.553 67.6942C233.842 70.2878 231.752 70.9362 230.672 70.9362H219.505V78.5009H234.634C241.839 77.4202 244 74.1782 244 68.0544C244 63.1553 240.638 60.97 238.957 60.4897C240.398 60.6097 243.208 59.3369 242.919 53.2852C242.631 47.2334 236.315 45.4803 233.193 45.3602Z" fill="#311F85"/>
<path d="M200.773 58.3283H193.569L188.165 78.1407H215.903L205.456 45H197.531L205.456 70.2157H197.531L200.773 58.3283Z" fill="#311F85"/>
<path d="M116.931 16.3621C137.61 27.2927 100.929 62.2567 80.0038 78.3724V81H147V62.0816H119.041C143.94 44.4244 147.352 28.4488 145.945 22.6682C144.538 14.6104 135.5 -1.19 110.601 0.0712301C85.7011 1.33246 79.828 19.8655 80.0038 28.9744L104.798 27.9233C102.266 15.311 111.831 14.9607 116.931 16.3621Z" fill="#FF8004"/>
</svg>
